# xmcd CD database file
#
# Track frame offsets:
#	150
#	23423
#	36033
#	52015
#	80203
#	93520
#	105026
#	121148
#	137743
#	165726
#	189350
#	210083
#	234214
#	245220
#	269855
#
# Disc length: 4235 seconds
#
# Revision: 0
# Processed by: cddbd v1.5.2PL0 Copyright (c) Steve Scherf et al.
# Submitted via: CDex 1.70beta2
#
DISCID=c110890f
DTITLE=Sueddeutsche Zeitung - Jazz - Inspired by ...
DYEAR=2011
DGENRE=Jazz
TTITLE0=Brückner Beat and The Lone World Trio: Beat-Glückselig 
TTITLE1=Miles Davis: Générique 
TTITLE2=Leszek Moždžer: Svantetic 
TTITLE3=Michel Portal: Max Mon Amour #2
TTITLE4=Harry James and His Orchestra: I've Heard That Song Before
TTITLE5=Lalo Schifrin: Mission: Impossible
TTITLE6=Jimmy Scott: On Broadway 
TTITLE7=Gert Westphal and Attila Zoller: Aphrodite 
TTITLE8=Gianluigi Trovesi - Animali In Marcia 
TTITLE9=Huong Thanh: Crossing the Valley (Reverie dans la Vallee)
TTITLE10=Geoff Goodman: Sound Of The Wind
TTITLE11=Roy Nathanson: Safer End Of Subway Moon
TTITLE12=Klaus König: The Day After
TTITLE13=Portico Quartet: Paper Scissors Stone 
TTITLE14=Enrico Rava: Stabat Mater 
EXTD=YEAR: 2011
EXTT0=
EXTT1=
EXTT2=
EXTT3=
EXTT4=
EXTT5=
EXTT6=
EXTT7=
EXTT8=
EXTT9=
EXTT10=
EXTT11=
EXTT12=
EXTT13=
EXTT14=
PLAYORDER=
